# Blender v2.78 (sub 0) OBJ File: 'Grass Models.blend'
# www.blender.org
mtllib Grass Model 3.mtl
o Plane.004
v 0.456029 -0.000538 -0.034416
v 0.481167 0.160538 -0.151245
v 0.259952 -0.000538 -0.076607
v 0.285090 0.160538 -0.193436
vn -0.1689 0.5958 0.7851
usemtl Grass
s off
f 1//1 2//1 4//1 3//1
o Plane.003
v 0.907878 -0.000538 0.159391
v 0.984300 0.160538 0.067518
v 0.753685 -0.000538 0.031130
v 0.830108 0.160538 -0.060743
vn -0.5136 0.5958 0.6174
usemtl Grass
s off
f 5//2 6//2 8//2 7//2
o Plane.002
v 0.427936 -0.000538 0.470276
v 0.394563 0.160538 0.585025
v 0.620521 -0.000538 0.526285
v 0.587149 0.160538 0.641034
vn 0.2243 0.5958 -0.7712
usemtl Grass
s off
f 9//3 10//3 12//3 11//3
o Plane.001
v -0.555097 -0.000538 -0.319277
v -0.455228 0.160538 -0.384906
v -0.665244 -0.000538 -0.486890
v -0.565375 0.160538 -0.552518
vn -0.6712 0.5958 0.4411
usemtl Grass
s off
f 13//4 14//4 16//4 15//4
o Plane
v -0.456866 -0.000538 0.456803
v -0.337362 0.160538 0.456803
v -0.456866 -0.000538 0.256238
v -0.337362 0.160538 0.256238
vn -0.8031 0.5958 0.0000
usemtl Grass
s off
f 17//5 18//5 20//5 19//5
