# Blender v2.78 (sub 0) OBJ File: 'Grass Models.blend'
# www.blender.org
mtllib Grass Model 1.mtl
o Plane.004
v 0.684360 -0.000538 -0.339661
v 0.709499 0.160538 -0.456490
v 0.488283 -0.000538 -0.381852
v 0.513422 0.160538 -0.498681
vn -0.1689 0.5958 0.7851
usemtl Grass
s off
f 1//1 2//1 4//1 3//1
o Plane.003
v 0.453371 -0.000538 0.479319
v 0.529793 0.160538 0.387446
v 0.299179 -0.000538 0.351058
v 0.375601 0.160538 0.259185
vn -0.5136 0.5958 0.6174
usemtl Grass
s off
f 5//2 6//2 8//2 7//2
o Plane.002
v -0.385235 -0.000538 -0.417828
v -0.418607 0.160538 -0.303079
v -0.192649 -0.000538 -0.361819
v -0.226021 0.160538 -0.247070
vn 0.2243 0.5958 -0.7712
usemtl Grass
s off
f 9//3 10//3 12//3 11//3
o Plane.001
v -0.568869 -0.000538 0.653254
v -0.469000 0.160538 0.587625
v -0.679016 -0.000538 0.485641
v -0.579147 0.160538 0.420012
vn -0.6712 0.5958 0.4411
usemtl Grass
s off
f 13//4 14//4 16//4 15//4
o Plane
v -0.059752 -0.000538 0.100282
v 0.059752 0.160538 0.100282
v -0.059752 -0.000538 -0.100282
v 0.059752 0.160538 -0.100282
vn -0.8031 0.5958 0.0000
usemtl Grass
s off
f 17//5 18//5 20//5 19//5
