# Blender v2.78 (sub 0) OBJ File: 'Tree.blend'
# www.blender.org
mtllib Tree.mtl
o Cylinder
v -0.000000 -0.041152 -0.753132
v -0.000000 6.664448 -0.048259
v 0.652231 -0.041152 -0.376566
v 0.041793 6.664448 -0.024129
v 0.652231 -0.041152 0.376566
v 0.041793 6.664448 0.024129
v -0.000000 -0.041152 0.753132
v -0.000000 6.664448 0.048259
v -0.652231 -0.041152 0.376566
v -0.041793 6.664448 0.024129
v -0.652231 -0.041152 -0.376566
v -0.041793 6.664448 -0.024129
v 0.000000 0.729408 -2.291053
v -0.000000 2.542980 -0.652542
v 0.000000 2.578649 -1.735703
v -0.000000 4.696239 -0.350401
v 0.000000 4.627660 -0.924924
v 0.801008 4.627659 -0.462462
v 0.303456 4.696239 -0.175200
v 1.503163 2.578649 -0.867852
v 0.565118 2.542980 -0.326271
v 1.984110 0.729407 -1.145526
v 0.801008 4.627659 0.462462
v 0.303456 4.696239 0.175200
v 1.503163 2.578649 0.867852
v 0.565118 2.542980 0.326271
v 1.984110 0.729407 1.145526
v -0.000000 4.627659 0.924924
v -0.000000 4.696239 0.350401
v -0.000000 2.578649 1.735703
v -0.000000 2.542980 0.652542
v -0.000000 0.729407 2.291053
v -0.801008 4.627659 0.462462
v -0.303456 4.696239 0.175200
v -1.503163 2.578649 0.867851
v -0.565118 2.542980 0.326271
v -1.984110 0.729407 1.145526
v -0.801008 4.627659 -0.462462
v -0.303456 4.696239 -0.175200
v -1.503163 2.578649 -0.867851
v -0.565118 2.542980 -0.326271
v -1.984110 0.729407 -1.145526
v 0.600626 0.699358 -0.346772
v 0.600626 0.699358 0.346772
v -0.000000 0.699358 0.693543
v -0.600626 0.699358 0.346772
v -0.600626 0.699358 -0.346772
v -0.000000 0.699359 -0.693543
vn 0.4685 0.3493 -0.8115
vn 0.9370 0.3493 0.0000
vn 0.4685 0.3493 0.8115
vn -0.4685 0.3493 0.8115
vn 0.0000 1.0000 0.0000
vn -0.9370 0.3493 0.0000
vn -0.4685 0.3493 -0.8115
vn -0.0109 -0.9998 -0.0188
vn -0.3938 0.6162 -0.6821
vn -0.0190 -0.9993 -0.0329
vn -0.4350 0.4929 -0.7535
vn 0.0683 -0.9906 0.1182
vn -0.0217 -0.9998 0.0000
vn -0.7876 0.6162 0.0000
vn -0.0380 -0.9993 0.0000
vn -0.8701 0.4929 0.0000
vn 0.1365 -0.9906 0.0000
vn -0.0109 -0.9998 0.0188
vn -0.3938 0.6162 0.6821
vn -0.0190 -0.9993 0.0329
vn -0.4350 0.4929 0.7535
vn 0.0683 -0.9906 -0.1182
vn 0.0109 -0.9998 0.0188
vn 0.3938 0.6162 0.6821
vn 0.0190 -0.9993 0.0329
vn 0.4350 0.4929 0.7535
vn -0.0683 -0.9906 -0.1183
vn 0.0217 -0.9998 0.0000
vn 0.7876 0.6162 0.0000
vn 0.0380 -0.9993 0.0000
vn 0.8701 0.4929 0.0000
vn -0.1365 -0.9906 0.0000
vn 0.0109 -0.9998 -0.0188
vn 0.3938 0.6162 -0.6821
vn 0.0190 -0.9993 -0.0329
vn 0.4350 0.4929 -0.7535
vn -0.0683 -0.9906 0.1182
vn 0.0000 -1.0000 0.0000
vn 0.4988 0.0695 -0.8639
vn 0.9976 0.0695 0.0000
vn 0.4988 0.0695 0.8639
vn -0.4988 0.0695 0.8639
vn -0.9976 0.0695 0.0000
vn -0.4988 0.0695 -0.8639
usemtl Leaves
s off
f 17//1 2//1 4//1 18//1
f 18//2 4//2 6//2 23//2
f 23//3 6//3 8//3 28//3
f 28//4 8//4 10//4 33//4
f 4//5 2//5 12//5 10//5 8//5 6//5
f 33//6 10//6 12//6 38//6
f 38//7 12//7 2//7 17//7
f 47//8 42//8 13//8 48//8
f 42//9 41//9 14//9 13//9
f 41//10 40//10 15//10 14//10
f 40//11 39//11 16//11 15//11
f 39//12 38//12 17//12 16//12
f 46//13 37//13 42//13 47//13
f 37//14 36//14 41//14 42//14
f 36//15 35//15 40//15 41//15
f 35//16 34//16 39//16 40//16
f 34//17 33//17 38//17 39//17
f 45//18 32//18 37//18 46//18
f 32//19 31//19 36//19 37//19
f 31//20 30//20 35//20 36//20
f 30//21 29//21 34//21 35//21
f 29//22 28//22 33//22 34//22
f 44//23 27//23 32//23 45//23
f 27//24 26//24 31//24 32//24
f 26//25 25//25 30//25 31//25
f 25//26 24//26 29//26 30//26
f 24//27 23//27 28//27 29//27
f 43//28 22//28 27//28 44//28
f 22//29 21//29 26//29 27//29
f 21//30 20//30 25//30 26//30
f 20//31 19//31 24//31 25//31
f 19//32 18//32 23//32 24//32
f 48//33 13//33 22//33 43//33
f 13//34 14//34 21//34 22//34
f 14//35 15//35 20//35 21//35
f 15//36 16//36 19//36 20//36
f 16//37 17//37 18//37 19//37
usemtl Trunk
f 1//38 3//38 5//38 7//38 9//38 11//38
f 1//39 48//39 43//39 3//39
f 3//40 43//40 44//40 5//40
f 5//41 44//41 45//41 7//41
f 7//42 45//42 46//42 9//42
f 9//43 46//43 47//43 11//43
f 11//44 47//44 48//44 1//44
