# Blender v2.78 (sub 0) OBJ File: 'Gate.blend'
# www.blender.org
mtllib Gate.mtl
o Cube_Cube.003
v -4.666667 9.000000 0.476027
v -3.333333 9.000000 0.583938
v -2.000000 9.000000 0.691929
v -1.066667 8.300000 0.800000
v 1.066666 8.300000 0.800000
v 2.000000 9.000000 0.691929
v 3.333333 9.000000 0.583938
v 4.666667 9.000000 0.476027
v -4.666667 0.000000 -1.270512
v -3.333333 0.000000 -1.180242
v -2.000000 0.000000 -1.090072
v 2.000000 0.000000 -1.090072
v 3.333333 0.000000 -1.180242
v 4.666667 0.000000 -1.270512
v 4.666667 9.000000 -1.076452
v 3.333333 9.000000 -0.984222
v 2.000000 9.000000 -0.892072
v 1.066667 8.300000 -0.800000
v -1.066666 8.300000 -0.800000
v -2.000000 9.000000 -0.892072
v -3.333333 9.000000 -0.984222
v -4.666667 9.000000 -1.076452
v 4.666667 0.000000 0.670087
v 3.333333 0.000000 0.779958
v 2.000000 0.000000 0.889929
v -2.000000 0.000000 0.889929
v -3.333333 0.000000 0.779958
v -4.666667 0.000000 0.670087
v 6.000000 8.000000 -1.226303
v 6.000000 0.000000 -1.432938
v 6.000000 8.000000 0.426777
v 6.000000 0.000000 0.633412
v -6.000000 8.000000 -1.226303
v -6.000000 0.000000 -1.432938
v -6.000000 8.000000 0.426777
v -6.000000 0.000000 0.633412
v -4.666667 7.400000 0.670087
v -4.666667 4.800000 0.670087
v -4.666667 3.200000 0.670087
v -4.666667 1.600000 0.670087
v -0.666667 7.400000 1.000000
v -0.666667 4.800000 1.000000
v 2.000000 7.400000 0.889929
v 1.400000 4.200000 0.889929
v 2.000000 3.200000 0.889929
v 2.000000 1.600000 0.889929
v 2.000000 7.400000 -1.090072
v 1.400000 4.200000 -1.090072
v 2.000000 3.200000 -1.090072
v 2.000000 1.600000 -1.090072
v 0.666667 7.400000 -1.000000
v 0.666667 4.800000 -1.000000
v 3.333333 7.400000 -1.180242
v 3.333333 4.800000 -1.180242
v 3.333333 3.200000 -1.180242
v 3.333333 1.600000 -1.180242
v 4.666667 7.400000 -1.270512
v 4.666667 4.800000 -1.270512
v 4.666667 3.200000 -1.270512
v 4.666667 1.600000 -1.270512
v 4.666667 7.400000 0.670087
v 4.666667 4.800000 0.670087
v 4.666667 3.200000 0.670087
v 4.666667 1.600000 0.670087
v 3.333333 7.400000 0.779958
v 3.333333 4.800000 0.779958
v 3.333333 3.200000 0.779958
v 3.333333 1.600000 0.779958
v 0.666667 7.400000 1.000000
v 0.666667 4.800000 1.000000
v -2.000000 7.400000 0.889929
v -1.400000 4.200000 0.889929
v -2.000000 3.200000 0.889929
v -2.000000 1.600000 0.889929
v -3.333333 7.400000 0.779958
v -3.333333 4.800000 0.779958
v -3.333333 3.200000 0.779958
v -3.333333 1.600000 0.779958
v -0.666667 7.400000 -1.000000
v -0.666667 4.800000 -1.000000
v -4.666667 7.400000 -1.270512
v -4.666667 4.800000 -1.270512
v -4.666667 3.200000 -1.270512
v -4.666667 1.600000 -1.270512
v -2.000000 7.400000 -1.090072
v -1.400000 4.200000 -1.090072
v -2.000000 3.200000 -1.090072
v -2.000000 1.600000 -1.090072
v -3.333333 7.400000 -1.180242
v -3.333333 4.800000 -1.180242
v -3.333333 3.200000 -1.180242
v -3.333333 1.600000 -1.180242
v 6.000000 6.400000 -1.432938
v 6.000000 4.800000 -1.432938
v 6.000000 3.200000 -1.432938
v 6.000000 1.600000 -1.432938
v 6.000000 6.400000 0.633412
v 6.000000 4.800000 0.633412
v 6.000000 3.200000 0.633412
v 6.000000 1.600000 0.633412
v -6.000000 6.400000 -1.432938
v -6.000000 4.800000 -1.432938
v -6.000000 3.200000 -1.432938
v -6.000000 1.600000 -1.432938
v -6.000000 1.600000 0.633412
v -6.000000 3.200000 0.633412
v -6.000000 4.800000 0.633412
v -6.000000 6.400000 0.633412
v -4.666667 10.000000 0.184937
v -4.666667 10.000000 -0.882392
v -6.000000 9.500000 -1.019668
v -6.000000 9.500000 0.116824
v -3.333333 10.000000 0.289908
v -2.000000 10.000000 0.394929
v -2.000000 10.000000 -0.694072
v -3.333333 10.000000 -0.788202
v -0.666667 9.300000 0.500000
v 0.666667 9.300000 0.500000
v 0.666667 9.300000 -0.600000
v -0.666667 9.300000 -0.600000
v 2.000000 10.000000 0.394929
v 3.333333 10.000000 0.289908
v 3.333333 10.000000 -0.788202
v 2.000000 10.000000 -0.694072
v 4.666667 10.000000 0.184937
v 4.666667 10.000000 -0.882392
v 6.000000 9.500000 -1.019668
v 6.000000 9.500000 0.116824
vn 0.0677 0.1219 -0.9902
vn 0.0000 0.2169 -0.9762
vn -0.1329 0.1765 -0.9753
vn -0.0677 0.1219 -0.9902
vn -0.0678 0.1207 -0.9904
vn -0.0173 0.1582 -0.9873
vn 0.0000 1.0000 0.0000
vn 0.0764 0.2826 0.9562
vn -0.6000 0.8000 0.0000
vn 0.9285 0.3714 0.0000
vn 0.6000 0.8000 0.0000
vn -1.0000 0.0000 -0.0000
vn 0.1242 0.1233 0.9846
vn 0.0808 0.1206 0.9894
vn 0.0809 0.1218 0.9893
vn 0.0489 0.1494 0.9876
vn 0.0000 0.2169 0.9762
vn -0.0489 0.1494 0.9876
vn -0.0809 0.1218 0.9893
vn -0.0808 0.1206 0.9894
vn 0.1329 0.1765 -0.9753
vn 0.0000 -1.0000 0.0000
vn 0.0230 0.1242 -0.9920
vn 0.0678 0.1207 -0.9904
vn -0.1242 0.1233 0.9846
vn 1.0000 -0.0000 0.0000
vn -0.0230 0.1242 -0.9920
vn -0.1209 0.0000 -0.9927
vn -0.0275 -0.0000 0.9996
vn 0.0675 0.0000 -0.9977
vn 0.1209 0.0000 -0.9927
vn 0.0843 0.0087 -0.9964
vn -0.0821 0.0000 0.9966
vn -0.0822 -0.0000 0.9966
vn -0.0644 0.0149 0.9978
vn -0.0685 -0.0071 0.9976
vn -0.1029 -0.0106 0.9946
vn 0.0000 0.0000 1.0000
vn 0.1029 -0.0106 0.9946
vn 0.0822 0.0000 0.9966
vn 0.0644 0.0149 0.9978
vn 0.0685 -0.0071 0.9976
vn 0.0821 0.0000 0.9966
vn 0.0275 0.0000 0.9996
vn -0.0675 0.0000 -0.9977
vn -0.0529 -0.0122 -0.9985
vn -0.0562 0.0058 -0.9984
vn -0.0843 0.0087 -0.9964
vn 0.0000 0.0000 -1.0000
vn 0.0529 -0.0122 -0.9985
vn 0.0562 0.0058 -0.9984
vn -0.3511 0.9363 0.0000
vn 0.0173 0.1582 -0.9873
vn -0.1717 0.2303 0.9579
vn 0.0684 0.1928 -0.9788
vn -0.0764 0.2826 0.9562
vn 0.0000 0.2873 0.9578
vn -0.9285 0.3714 -0.0000
vn 0.0000 0.1961 -0.9806
vn -0.0684 0.1928 -0.9788
vn 0.3511 0.9363 0.0000
vn 0.1717 0.2303 0.9579
vn -0.8575 -0.5145 -0.0000
vn -0.8575 0.5145 0.0000
vn -0.6332 -0.7740 0.0000
vn 0.6332 -0.7740 -0.0000
vn -0.6332 0.7740 0.0000
usemtl None
s off
f 89//1 21//1 20//1 85//1
f 79//2 19//2 18//2 51//2
f 51//3 18//3 17//3 47//3
f 47//4 17//4 16//4 53//4
f 53//5 16//5 15//5 57//5
f 29//6 15//6 126//6 127//6
f 15//7 16//7 7//7 8//7
f 6//8 7//8 122//8 121//8
f 17//9 18//9 5//9 6//9
f 5//10 18//10 119//10 118//10
f 19//11 20//11 3//11 4//11
f 21//12 2//12 113//12 116//12
f 21//7 22//7 1//7 2//7
f 97//13 31//13 8//13 61//13
f 61//14 8//14 7//14 65//14
f 65//15 7//15 6//15 43//15
f 43//16 6//16 5//16 69//16
f 69//17 5//17 4//17 41//17
f 41//18 4//18 3//18 71//18
f 71//19 3//19 2//19 75//19
f 75//20 2//20 1//20 37//20
f 85//21 20//21 19//21 79//21
f 12//22 13//22 24//22 25//22
f 101//23 33//23 22//23 81//23
f 13//22 14//22 23//22 24//22
f 10//22 11//22 26//22 27//22
f 81//24 22//24 21//24 89//24
f 9//22 10//22 27//22 28//22
f 34//22 9//22 28//22 36//22
f 37//25 1//25 35//25 108//25
f 1//26 22//26 110//26 109//26
f 57//27 15//27 29//27 93//27
f 93//26 29//26 31//26 97//26
f 108//12 35//12 33//12 101//12
f 14//22 30//22 32//22 23//22
f 36//12 105//12 104//12 34//12
f 105//12 106//12 103//12 104//12
f 106//12 107//12 102//12 103//12
f 107//12 108//12 101//12 102//12
f 30//26 96//26 100//26 32//26
f 96//26 95//26 99//26 100//26
f 95//26 94//26 98//26 99//26
f 94//26 93//26 97//26 98//26
f 14//28 60//28 96//28 30//28
f 60//28 59//28 95//28 96//28
f 59//28 58//28 94//28 95//28
f 58//28 57//28 93//28 94//28
f 28//29 40//29 105//29 36//29
f 40//29 39//29 106//29 105//29
f 39//29 38//29 107//29 106//29
f 38//29 37//29 108//29 107//29
f 9//30 84//30 92//30 10//30
f 84//30 83//30 91//30 92//30
f 83//30 82//30 90//30 91//30
f 82//30 81//30 89//30 90//30
f 34//31 104//31 84//31 9//31
f 104//31 103//31 83//31 84//31
f 103//31 102//31 82//31 83//31
f 102//31 101//31 81//31 82//31
f 86//32 85//32 79//32 80//32
f 27//33 78//33 40//33 28//33
f 78//33 77//33 39//33 40//33
f 77//33 76//33 38//33 39//33
f 76//33 75//33 37//33 38//33
f 26//34 74//34 78//34 27//34
f 74//34 73//34 77//34 78//34
f 73//35 72//35 76//35 77//35
f 72//36 71//36 75//36 76//36
f 42//37 41//37 71//37 72//37
f 70//38 69//38 41//38 42//38
f 44//39 43//39 69//39 70//39
f 24//40 68//40 46//40 25//40
f 68//40 67//40 45//40 46//40
f 67//41 66//41 44//41 45//41
f 66//42 65//42 43//42 44//42
f 23//43 64//43 68//43 24//43
f 64//43 63//43 67//43 68//43
f 63//43 62//43 66//43 67//43
f 62//43 61//43 65//43 66//43
f 32//44 100//44 64//44 23//44
f 100//44 99//44 63//44 64//44
f 99//44 98//44 62//44 63//44
f 98//44 97//44 61//44 62//44
f 13//45 56//45 60//45 14//45
f 56//45 55//45 59//45 60//45
f 55//45 54//45 58//45 59//45
f 54//45 53//45 57//45 58//45
f 12//45 50//45 56//45 13//45
f 50//45 49//45 55//45 56//45
f 49//46 48//46 54//46 55//46
f 48//47 47//47 53//47 54//47
f 52//48 51//48 47//48 48//48
f 80//49 79//49 51//49 52//49
f 10//30 92//30 88//30 11//30
f 92//30 91//30 87//30 88//30
f 91//50 90//50 86//50 87//50
f 90//51 89//51 85//51 86//51
f 110//52 111//52 112//52 109//52
f 22//53 33//53 111//53 110//53
f 35//54 1//54 109//54 112//54
f 33//12 35//12 112//12 111//12
f 115//7 116//7 113//7 114//7
f 3//26 20//26 115//26 114//26
f 20//55 21//55 116//55 115//55
f 2//56 3//56 114//56 113//56
f 119//7 120//7 117//7 118//7
f 4//57 5//57 118//57 117//57
f 19//58 4//58 117//58 120//58
f 18//59 19//59 120//59 119//59
f 123//7 124//7 121//7 122//7
f 7//26 16//26 123//26 122//26
f 17//12 6//12 121//12 124//12
f 16//60 17//60 124//60 123//60
f 127//61 126//61 125//61 128//61
f 31//26 29//26 127//26 128//26
f 15//12 8//12 125//12 126//12
f 8//62 31//62 128//62 125//62
f 25//12 50//12 12//12
f 46//12 50//12 25//12
f 26//12 88//12 11//12
f 74//12 88//12 26//12
f 46//12 49//12 50//12
f 45//12 49//12 46//12
f 74//12 87//12 88//12
f 73//12 87//12 74//12
f 45//63 48//63 49//63
f 44//63 48//63 45//63
f 73//64 86//64 87//64
f 72//64 86//64 73//64
f 52//22 70//22 42//22
f 52//65 44//65 70//65
f 42//66 72//66 80//66
f 72//67 80//67 86//67
f 52//22 42//22 80//22
f 52//65 48//65 44//65
