# Blender v2.78 (sub 0) OBJ File: 'Bed.blend'
# www.blender.org
mtllib Bed.mtl
o Cube_Cube.002
v -5.000000 1.000000 1.988841
v -5.000000 1.400000 1.988841
v -5.000000 1.000000 -1.994361
v -5.000000 1.400000 -1.994361
v 5.000000 1.000000 1.988841
v 5.000000 1.400000 1.988841
v 5.000000 1.000000 -1.994361
v 5.000000 1.400000 -1.994361
v -5.000000 0.200000 1.988841
v -5.000000 1.000000 1.988841
v -5.000000 0.200000 1.192200
v -5.000000 1.000000 1.192200
v -4.400000 0.200000 1.988841
v -4.400000 1.000000 1.988841
v -4.400000 0.200000 1.192200
v -4.400000 1.000000 1.192200
v -5.000000 0.200000 -1.197721
v -5.000000 1.000000 -1.197721
v -5.000000 0.200000 -1.994361
v -5.000000 1.000000 -1.994361
v -4.400000 0.200000 -1.197721
v -4.400000 1.000000 -1.197721
v -4.400000 0.200000 -1.994361
v -4.400000 1.000000 -1.994361
v 4.400001 0.200000 1.988841
v 4.400001 1.000000 1.988841
v 4.400001 0.200000 1.192200
v 4.400001 1.000000 1.192200
v 5.000000 0.200000 1.988841
v 5.000000 1.000000 1.988841
v 5.000000 0.200000 1.192200
v 5.000000 1.000000 1.192200
v 4.400001 0.200000 -1.197721
v 4.400001 1.000000 -1.197721
v 4.400001 0.200000 -1.994361
v 4.400001 1.000000 -1.994361
v 5.000000 0.200000 -1.197721
v 5.000000 1.000000 -1.197721
v 5.000000 0.200000 -1.994361
v 5.000000 1.000000 -1.994361
v -2.642231 1.700000 1.988841
v -1.687308 1.800000 1.988841
v -0.732385 1.900000 1.988841
v 0.222538 1.876592 1.988841
v 1.177461 1.776592 1.988841
v 2.132384 1.876592 1.988841
v 3.087308 1.900000 1.988841
v 4.042231 2.000000 1.988841
v 4.042231 1.400000 1.988841
v 3.087308 1.400000 1.988841
v 2.132385 1.400000 1.988841
v 1.177462 1.400000 1.988841
v 0.222539 1.400000 1.988841
v -0.732384 1.400000 1.988841
v -1.687307 1.400000 1.988841
v -2.642231 1.400000 1.988841
v 4.997153 1.800000 -1.994361
v 4.997153 1.400000 -1.994361
v 4.997153 1.800000 1.988841
v 4.997153 1.400000 1.988841
v -3.597153 1.800000 -1.994361
v -3.597153 1.400000 -1.994361
v -3.597153 1.800000 1.988841
v -3.597153 1.400000 1.988841
v -2.642231 1.700000 -1.994361
v -1.687307 1.800000 -1.994361
v -0.732384 1.900000 -1.994361
v 0.222539 1.876592 -1.994361
v 1.177462 1.776592 -1.994361
v 2.132385 1.876592 -1.994361
v 3.087308 1.900000 -1.994361
v 4.042231 2.000000 -1.994361
v 4.042231 1.400000 -1.994361
v 3.087308 1.400000 -1.994361
v 2.132384 1.400000 -1.994361
v 1.177461 1.400000 -1.994361
v 0.222538 1.400000 -1.994361
v -0.732385 1.400000 -1.994361
v -1.687308 1.400000 -1.994361
v -2.642231 1.400000 -1.994361
v -5.000000 1.400000 1.988841
v -5.000000 2.163228 1.988841
v -5.000000 1.400000 -1.994361
v -5.000000 2.163228 -1.994361
v -3.600000 1.400000 1.988841
v -3.600000 1.887825 1.988841
v -3.600000 1.400000 -1.994361
v -3.600000 1.887825 -1.994361
v -3.950000 1.400000 -1.994361
v -4.300000 1.400000 -1.994361
v -4.650000 1.400000 -1.994361
v -4.650000 2.300000 -1.994361
v -4.300000 2.200000 -1.994361
v -3.950000 2.079357 -1.994361
v -4.650000 1.400000 1.988841
v -4.300000 1.400000 1.988841
v -3.950000 1.400000 1.988841
v -3.950000 2.079357 1.988841
v -4.300000 2.200000 1.988841
v -4.650000 2.300000 1.988841
v -5.000000 1.400000 -0.002760
v -5.000000 2.163228 -0.002760
v -3.600000 1.400000 -0.002760
v -3.600000 1.776793 -0.316513
v -4.055820 1.955163 0.615885
v -4.300000 2.088968 -0.316513
v -4.755820 2.175806 0.615885
v -4.650000 1.400000 -0.002760
v -4.300000 1.400000 -0.002760
v -3.950000 1.400000 -0.002760
vn -1.0000 0.0000 0.0000
vn 0.0000 0.0000 -1.0000
vn 1.0000 0.0000 0.0000
vn 0.0000 0.0000 1.0000
vn 0.0000 -1.0000 0.0000
vn 0.0000 1.0000 0.0000
vn -0.1042 0.9946 0.0000
vn 0.1042 0.9946 0.0000
vn -0.0245 0.9997 0.0000
vn 0.2050 0.9788 0.0000
vn 0.0245 0.9997 0.0000
vn -0.2149 0.9762 -0.0293
vn 0.3483 0.9348 -0.0698
vn 0.4831 0.8728 -0.0697
vn 0.1507 0.9863 -0.0674
vn 0.2904 0.9551 0.0596
vn 0.3123 0.9481 0.0597
vn 0.4728 0.8791 0.0599
vn -0.2632 0.9645 0.0200
usemtl BedLegs
s off
f 1//1 2//1 4//1 3//1
f 3//2 4//2 8//2 7//2
f 7//3 8//3 6//3 5//3
f 5//4 6//4 2//4 1//4
f 3//5 7//5 5//5 1//5
f 8//6 4//6 2//6 6//6
f 9//1 10//1 12//1 11//1
f 11//2 12//2 16//2 15//2
f 15//3 16//3 14//3 13//3
f 13//4 14//4 10//4 9//4
f 11//5 15//5 13//5 9//5
f 16//6 12//6 10//6 14//6
f 17//1 18//1 20//1 19//1
f 19//2 20//2 24//2 23//2
f 23//3 24//3 22//3 21//3
f 21//4 22//4 18//4 17//4
f 19//5 23//5 21//5 17//5
f 24//6 20//6 18//6 22//6
f 25//1 26//1 28//1 27//1
f 27//2 28//2 32//2 31//2
f 31//3 32//3 30//3 29//3
f 29//4 30//4 26//4 25//4
f 27//5 31//5 29//5 25//5
f 32//6 28//6 26//6 30//6
f 33//1 34//1 36//1 35//1
f 35//2 36//2 40//2 39//2
f 39//3 40//3 38//3 37//3
f 37//4 38//4 34//4 33//4
f 35//5 39//5 37//5 33//5
f 40//6 36//6 34//6 38//6
f 73//5 58//5 60//5 49//5
f 62//5 80//5 56//5 64//5
f 80//5 79//5 55//5 56//5
f 79//5 78//5 54//5 55//5
f 78//5 77//5 53//5 54//5
f 77//5 76//5 52//5 53//5
f 76//5 75//5 51//5 52//5
f 75//5 74//5 50//5 51//5
f 74//5 73//5 49//5 50//5
f 110//5 103//5 85//5 97//5
f 101//5 108//5 95//5 81//5
f 108//5 109//5 96//5 95//5
f 109//5 110//5 97//5 96//5
f 90//5 89//5 110//5 109//5
f 91//5 90//5 109//5 108//5
f 83//5 91//5 108//5 101//5
f 89//5 87//5 103//5 110//5
usemtl BedWhite
f 70//7 69//7 45//7 46//7
f 62//2 61//2 65//2 80//2
f 78//2 67//2 68//2 77//2
f 69//8 68//8 44//8 45//8
f 75//2 70//2 71//2 74//2
f 71//9 70//9 46//9 47//9
f 77//2 68//2 69//2 76//2
f 58//3 57//3 59//3 60//3
f 67//7 66//7 42//7 43//7
f 79//2 66//2 67//2 78//2
f 64//1 63//1 61//1 62//1
f 57//10 72//10 48//10 59//10
f 56//4 41//4 63//4 64//4
f 65//8 61//8 63//8 41//8
f 72//7 71//7 47//7 48//7
f 73//2 72//2 57//2 58//2
f 76//2 69//2 70//2 75//2
f 68//11 67//11 43//11 44//11
f 74//2 71//2 72//2 73//2
f 80//2 65//2 66//2 79//2
f 66//7 65//7 41//7 42//7
f 60//4 59//4 48//4 49//4
f 49//4 48//4 47//4 50//4
f 50//4 47//4 46//4 51//4
f 51//4 46//4 45//4 52//4
f 52//4 45//4 44//4 53//4
f 53//4 44//4 43//4 54//4
f 54//4 43//4 42//4 55//4
f 55//4 42//4 41//4 56//4
f 101//1 102//1 84//1 83//1
f 89//2 94//2 88//2 87//2
f 103//3 104//3 86//3 85//3
f 95//4 100//4 82//4 81//4
f 107//12 102//12 82//12 100//12
f 104//13 105//13 98//13 86//13
f 105//14 106//14 99//14 98//14
f 106//15 107//15 100//15 99//15
f 85//4 86//4 98//4 97//4
f 97//4 98//4 99//4 96//4
f 96//4 99//4 100//4 95//4
f 83//2 84//2 92//2 91//2
f 91//2 92//2 93//2 90//2
f 90//2 93//2 94//2 89//2
f 93//16 92//16 107//16 106//16
f 94//17 93//17 106//17 105//17
f 88//18 94//18 105//18 104//18
f 92//19 84//19 102//19 107//19
f 87//3 88//3 104//3 103//3
f 81//1 82//1 102//1 101//1
